# Blender 4.1.1
# www.blender.org
mtllib Boden.mtl
o Boden
v -8.000000 0.000000 -10.266771
v 8.000000 0.000000 -10.266771
v -8.000000 0.000000 -4.000000
v 8.000000 0.000000 -4.000000
v -8.000000 0.504886 -4.000000
v 8.000000 0.504886 -4.000000
v -8.000000 0.504886 -1.400000
v 8.000000 0.504886 -1.400000
v -8.000000 1.009772 -1.400000
v -8.000000 1.009772 1.200000
v 8.000000 1.009772 1.200000
v 8.000000 1.009772 -1.400000
v -8.000000 1.514658 1.200000
v -8.000000 1.514658 3.800000
v 8.000000 1.514658 3.800000
v 8.000000 1.514658 1.200000
v -8.000000 2.019545 3.800000
v -8.000000 2.019545 6.400000
v 7.468517 2.019545 6.400000
v 8.000000 2.019545 3.800000
v -8.000000 2.019545 6.400000
v 7.468517 2.019545 6.400000
v -8.000000 2.524431 6.400000
v 7.468517 2.524431 6.400000
v -8.000000 2.524431 9.000000
v -8.000000 2.524431 6.400000
v 7.468517 2.524431 6.400000
v 3.307101 2.524431 9.000000
v -8.000000 2.019545 5.100000
v 7.842492 2.019545 5.127058
v 6.089044 2.524356 8.136371
v 5.011948 2.524356 8.689948
v 6.873484 2.524356 7.417005
v 4.684164 0.000000 -10.266771
v 1.008228 0.000000 -10.266771
v 1.008228 0.000000 -10.587046
v -8.000000 0.000000 -10.587046
v 8.000000 0.000000 -10.587046
v 4.684164 0.000000 -10.587046
v 1.008228 0.000000 -15.016271
v -8.000000 0.000000 -15.016271
v 8.000000 0.000000 -15.016271
v 4.684164 0.000000 -15.016271
vn -0.0000 -0.0000 -1.0000
vn -0.0000 1.0000 -0.0000
vn -0.0000 -1.0000 -0.0000
vt 0.000000 0.500000
vt 1.000000 0.500000
vt 0.000000 0.400000
vt 1.000000 0.400000
vt 1.000000 0.300000
vt 0.000000 0.300000
vt 1.000000 0.200000
vt 0.000000 0.200000
vt 0.000000 0.100000
vt 1.000000 0.100000
vt 0.000000 0.000000
s 0
f 3/1/1 5/1/1 6/2/1 4/2/1
f 7/3/1 9/3/1 12/4/1 8/4/1
f 11/5/1 10/6/1 13/6/1 16/5/1
f 15/7/1 14/8/1 17/8/1 20/7/1
f 18/9/1 23/9/1 24/10/1 19/10/1
f 16/11/2 13/11/2 14/11/2 15/11/2
f 9/11/2 10/11/2 11/11/2 12/11/2
f 8/11/2 6/11/2 5/11/2 7/11/2
f 26/9/2 25/11/2 28/11/2 32/11/2 31/11/2 33/11/2 27/11/2
f 30/11/2 20/11/2 17/11/2 29/11/2 21/11/2 22/11/2
f 35/11/3 1/11/3 37/11/3 36/11/3
f 2/11/2 34/11/2 35/11/2 1/11/2 3/1/2 4/2/2
f 2/11/3 34/11/3 39/11/3 38/11/3
f 34/11/2 39/11/2 36/11/2 35/11/2
f 36/11/2 39/11/2 43/11/2 40/11/2
f 38/11/2 42/11/2 43/11/2 39/11/2
f 37/11/2 36/11/2 40/11/2 41/11/2
