# Blender 4.1.1
# www.blender.org
o Tuer2
v 3.559213 0.000144 -10.316510
v 3.559213 4.804214 -10.316510
v 3.559213 0.000144 -10.520761
v 3.559213 4.804214 -10.520761
v 4.667803 0.000144 -10.316510
v 4.667803 4.804214 -10.316510
v 4.667803 0.000144 -10.520761
v 4.667803 4.804214 -10.520761
v 3.559213 2.315760 -10.316510
v 3.559213 2.488599 -10.316510
v 3.559213 2.488599 -10.520761
v 3.559213 2.315760 -10.520761
v 4.667803 2.488599 -10.520761
v 4.667803 2.315760 -10.520761
v 4.667803 2.488599 -10.316510
v 4.667803 2.315760 -10.316510
v 3.588923 2.320392 -10.316510
v 3.588923 2.483967 -10.316510
v 4.638093 2.483967 -10.316510
v 4.638093 2.320392 -10.316510
v 3.610236 2.320392 -10.183428
v 3.610236 2.483967 -10.183428
v 4.616780 2.483967 -10.183428
v 4.616780 2.320392 -10.183428
v 4.495262 2.320392 -10.316510
v 3.731754 2.320392 -10.316510
v 4.495262 2.483967 -10.316510
v 3.731754 2.483967 -10.316510
v 4.495262 2.320392 -10.160086
v 3.731754 2.320392 -10.160086
v 4.495262 2.483967 -10.160086
v 3.731754 2.483967 -10.160086
v 3.703188 2.320392 -10.316510
v 3.674622 2.320392 -10.316510
v 3.646055 2.320392 -10.316510
v 3.617489 2.320392 -10.316510
v 3.703188 2.483967 -10.316510
v 3.674622 2.483967 -10.316510
v 3.646055 2.483967 -10.316510
v 3.617489 2.483967 -10.316510
v 3.703491 2.320392 -10.160418
v 3.675856 2.320392 -10.161438
v 3.649956 2.320392 -10.164358
v 3.627499 2.320392 -10.171049
v 3.703491 2.483967 -10.160418
v 3.675856 2.483967 -10.161438
v 3.649956 2.483967 -10.164358
v 3.627499 2.483967 -10.171049
v 3.598933 2.320392 -10.202333
v 3.592823 2.320392 -10.226927
v 3.590157 2.320392 -10.255292
v 3.589225 2.320392 -10.285557
v 4.637791 2.320392 -10.285557
v 4.636859 2.320392 -10.255292
v 4.634193 2.320392 -10.226927
v 4.628084 2.320392 -10.202333
v 3.589225 2.483967 -10.285557
v 3.590157 2.483967 -10.255292
v 3.592823 2.483967 -10.226927
v 3.598933 2.483967 -10.202333
v 4.637791 2.483967 -10.285557
v 4.636859 2.483967 -10.255292
v 4.634193 2.483967 -10.226927
v 4.628084 2.483967 -10.202333
v 3.731754 2.483967 -10.285225
v 3.731754 2.483967 -10.253941
v 3.731754 2.483967 -10.222655
v 3.731754 2.483967 -10.191371
v 4.495262 2.483967 -10.285225
v 4.495262 2.483967 -10.253941
v 4.495262 2.483967 -10.222655
v 4.495262 2.483967 -10.191371
v 3.731754 2.320392 -10.285225
v 3.731754 2.320392 -10.253941
v 3.731754 2.320392 -10.222655
v 3.731754 2.320392 -10.191371
v 4.495262 2.320392 -10.285225
v 4.495262 2.320392 -10.253941
v 4.495262 2.320392 -10.222655
v 4.495262 2.320392 -10.191371
v 4.609527 2.320392 -10.316510
v 4.580960 2.320392 -10.316510
v 4.552394 2.320392 -10.316510
v 4.523828 2.320392 -10.316510
v 4.609527 2.483967 -10.316510
v 4.580960 2.483967 -10.316510
v 4.552394 2.483967 -10.316510
v 4.523828 2.483967 -10.316510
v 4.599517 2.320392 -10.171049
v 4.577061 2.320392 -10.164358
v 4.551160 2.320392 -10.161438
v 4.523526 2.320392 -10.160418
v 4.599517 2.483967 -10.171049
v 4.577061 2.483967 -10.164358
v 4.551160 2.483967 -10.161438
v 4.523526 2.483967 -10.160418
vn -1.0000 -0.0000 -0.0000
vn -0.0000 -0.0000 -1.0000
vn 1.0000 -0.0000 -0.0000
vn -0.0000 -0.0000 1.0000
vn -0.0000 -1.0000 -0.0000
vn -0.0000 1.0000 -0.0000
vn -0.8583 -0.0000 0.5132
vn 0.8583 -0.0000 0.5132
vn 0.5828 -0.0000 0.8127
vn -0.0117 -0.0000 0.9999
vn -0.5828 -0.0000 0.8126
vn -0.2855 -0.0000 0.9584
vn -0.1120 -0.0000 0.9937
vn -0.0369 -0.0000 0.9993
vn 1.0000 -0.0000 0.0098
vn 0.9995 -0.0000 0.0308
vn 0.9956 -0.0000 0.0936
vn 0.9705 -0.0000 0.2411
vn -1.0000 -0.0000 0.0098
vn -0.9995 -0.0000 0.0308
vn -0.9956 -0.0000 0.0936
vn -0.9705 -0.0000 0.2411
vn 0.0117 -0.0000 0.9999
vn 0.0369 -0.0000 0.9993
vn 0.1120 -0.0000 0.9937
vn 0.2855 -0.0000 0.9584
vt 0.541667 0.000000
vt 0.625000 0.000000
vt 0.625000 0.250000
vt 0.541667 0.250000
vt 0.625000 0.500000
vt 0.541667 0.500000
vt 0.625000 0.750000
vt 0.541667 0.750000
vt 0.625000 1.000000
vt 0.541667 1.000000
vt 0.125000 0.500000
vt 0.375000 0.500000
vt 0.375000 0.750000
vt 0.125000 0.750000
vt 0.875000 0.500000
vt 0.875000 0.750000
vt 0.458333 0.750000
vt 0.458333 1.000000
vt 0.375000 1.000000
vt 0.458333 0.500000
vt 0.375000 0.250000
vt 0.458333 0.250000
vt 0.375000 0.000000
vt 0.458333 0.000000
vt 0.458333 0.756807
vt 0.541667 0.756807
vt 0.458333 0.972772
vt 0.458333 0.965966
vt 0.541667 0.965966
vt 0.541667 0.972772
vt 0.458333 0.784034
vt 0.541667 0.784034
vt 0.458333 0.965966
vt 0.458333 0.993193
vt 0.541667 0.993193
vt 0.458333 0.986386
vt 0.541667 0.986386
vt 0.458333 0.979579
vt 0.541667 0.979579
vt 0.458333 0.965965
vt 0.458333 0.784034
vt 0.458333 0.965966
vt 0.458333 0.784034
vt 0.541667 0.784034
vt 0.458333 0.777228
vt 0.541667 0.777228
vt 0.458333 0.770421
vt 0.541667 0.770421
vt 0.458333 0.763614
vt 0.541667 0.763614
vt 0.458333 0.979579
vt 0.458333 0.972772
vt 0.458333 0.777228
s 0
f 10/1/1 2/2/1 4/3/1 11/4/1
f 11/4/2 4/3/2 8/5/2 13/6/2
f 13/6/3 8/5/3 6/7/3 15/8/3
f 15/8/4 6/7/4 2/9/4 10/10/4
f 3/11/5 7/12/5 5/13/5 1/14/5
f 8/5/6 4/15/6 2/16/6 6/7/6
f 5/13/4 16/17/4 9/18/4 1/19/4
f 16/17/4 15/8/4 10/10/4 9/18/4
f 7/12/3 14/20/3 16/17/3 5/13/3
f 14/20/3 13/6/3 15/8/3 16/17/3
f 3/21/2 12/22/2 14/20/2 7/12/2
f 12/22/2 11/4/2 13/6/2 14/20/2
f 1/23/1 9/24/1 12/22/1 3/21/1
f 9/24/1 10/1/1 11/4/1 12/22/1
f 49/24/7 21/24/7 22/1/7 60/1/7
f 64/8/8 23/8/8 24/17/8 56/17/8
f 89/25/9 24/17/9 23/8/9 93/26/9
f 41/27/10 30/28/10 32/29/10 45/30/10
f 30/28/4 29/31/4 31/32/4 32/29/4
f 68/29/6 32/29/6 31/32/6 72/32/6
f 76/33/5 80/31/5 29/31/5 30/28/5
f 21/18/11 44/34/11 48/35/11 22/10/11
f 44/34/12 43/36/12 47/37/12 48/35/12
f 43/36/13 42/38/13 46/39/13 47/37/13
f 42/38/14 41/27/14 45/30/14 46/39/14
f 26/40/5 25/41/5 77/41/5 73/42/5
f 73/42/5 77/41/5 78/41/5 74/33/5
f 74/33/5 78/41/5 79/43/5 75/33/5
f 75/33/5 79/43/5 80/31/5 76/33/5
f 28/29/6 65/29/6 69/32/6 27/32/6
f 65/29/6 66/29/6 70/32/6 69/32/6
f 66/29/6 67/29/6 71/44/6 70/32/6
f 67/29/6 68/29/6 72/32/6 71/44/6
f 19/8/15 61/8/15 53/17/15 20/17/15
f 61/8/16 62/8/16 54/17/16 53/17/16
f 62/8/17 63/8/17 55/17/17 54/17/17
f 63/8/18 64/8/18 56/17/18 55/17/18
f 17/24/19 52/24/19 57/1/19 18/1/19
f 52/24/20 51/24/20 58/1/20 57/1/20
f 51/24/21 50/24/21 59/1/21 58/1/21
f 50/24/22 49/24/22 60/1/22 59/1/22
f 29/31/23 92/45/23 96/46/23 31/32/23
f 92/45/24 91/47/24 95/48/24 96/46/24
f 91/47/25 90/49/25 94/50/25 95/48/25
f 90/49/26 89/25/26 93/26/26 94/50/26
f 18/1/6 57/1/6 58/1/6 59/1/6 60/1/6 22/1/6 48/35/6 47/37/6 46/39/6 45/30/6 32/29/6 68/29/6 67/29/6 66/29/6 65/29/6 28/29/6 37/30/6 38/39/6 39/37/6 40/35/6
f 17/24/5 36/34/5 35/36/5 34/51/5 33/52/5 26/40/5 73/42/5 74/33/5 75/33/5 76/33/5 30/28/5 41/27/5 42/38/5 43/36/5 44/34/5 21/24/5 49/24/5 50/24/5 51/24/5 52/24/5
f 24/17/5 89/25/5 90/49/5 91/47/5 92/45/5 29/31/5 80/31/5 79/43/5 78/41/5 77/41/5 25/41/5 84/53/5 83/47/5 82/49/5 81/25/5 20/17/5 53/17/5 54/17/5 55/17/5 56/17/5
f 23/8/6 64/8/6 63/8/6 62/8/6 61/8/6 19/8/6 85/26/6 86/50/6 87/48/6 88/46/6 27/32/6 69/32/6 70/32/6 71/44/6 72/32/6 31/32/6 96/46/6 95/48/6 94/50/6 93/26/6
l 19 15
l 16 20
l 17 9
l 10 18
o Tuer
v 1.177983 0.000144 -10.394264
v 1.177983 4.804214 -10.394264
v 1.034799 0.000144 -10.539925
v 1.034799 4.804214 -10.539925
v 2.971558 0.000144 -12.157349
v 2.971558 4.804214 -12.157349
v 2.828373 0.000144 -12.303010
v 2.828373 4.804214 -12.303010
v 1.177983 2.315760 -10.394264
v 1.177983 2.488599 -10.394264
v 1.034799 2.488599 -10.539925
v 1.034799 2.315760 -10.539925
v 2.828373 2.488599 -12.303010
v 2.828373 2.315760 -12.303010
v 2.971558 2.488599 -12.157349
v 2.971558 2.315760 -12.157349
v 1.199171 2.320392 -10.415092
v 1.199171 2.483967 -10.415092
v 2.950370 2.483967 -12.136522
v 2.950370 2.320392 -12.136522
v 1.307663 2.320392 -10.335126
v 1.307663 2.483967 -10.335126
v 3.028465 2.483967 -12.026675
v 3.028465 2.320392 -12.026675
v 2.848512 2.320392 -12.036394
v 1.301030 2.320392 -10.515220
v 2.848512 2.483967 -12.036394
v 1.301030 2.483967 -10.515220
v 2.958168 2.320392 -11.924842
v 1.410686 2.320392 -10.403666
v 2.958168 2.483967 -11.924842
v 1.410686 2.483967 -10.403666
v 1.280658 2.320392 -10.495193
v 1.260286 2.320392 -10.475168
v 1.239914 2.320392 -10.455143
v 1.219543 2.320392 -10.435117
v 1.280658 2.483967 -10.495193
v 1.260286 2.483967 -10.475168
v 1.239914 2.483967 -10.455143
v 1.219543 2.483967 -10.435117
v 1.390298 2.320392 -10.384089
v 1.369875 2.320392 -10.365445
v 1.349358 2.320392 -10.349371
v 1.328652 2.320392 -10.338400
v 1.390298 2.483967 -10.384089
v 1.369875 2.483967 -10.365445
v 1.349358 2.483967 -10.349371
v 1.328652 2.483967 -10.338400
v 1.286349 2.320392 -10.340684
v 1.264752 2.320392 -10.353940
v 1.242966 2.320392 -10.372299
v 1.221085 2.320392 -10.393229
v 2.971854 2.320392 -12.114236
v 2.992406 2.320392 -12.092000
v 3.010389 2.320392 -12.069903
v 3.023273 2.320392 -12.048081
v 1.221085 2.483967 -10.393229
v 1.242966 2.483967 -10.372299
v 1.264752 2.483967 -10.353940
v 1.286349 2.483967 -10.340684
v 2.971854 2.483967 -12.114236
v 2.992406 2.483967 -12.092000
v 3.010389 2.483967 -12.069903
v 3.023273 2.483967 -12.048081
v 1.322961 2.483967 -10.492908
v 1.344893 2.483967 -10.470598
v 1.366824 2.483967 -10.448288
v 1.388755 2.483967 -10.425978
v 2.870443 2.483967 -12.014084
v 2.892374 2.483967 -11.991774
v 2.914305 2.483967 -11.969463
v 2.936236 2.483967 -11.947152
v 1.322961 2.320392 -10.492908
v 1.344893 2.320392 -10.470598
v 1.366824 2.320392 -10.448288
v 1.388755 2.320392 -10.425978
v 2.870443 2.320392 -12.014084
v 2.892374 2.320392 -11.991774
v 2.914305 2.320392 -11.969463
v 2.936236 2.320392 -11.947152
v 2.929999 2.320392 -12.116496
v 2.909627 2.320392 -12.096471
v 2.889255 2.320392 -12.076446
v 2.868884 2.320392 -12.056420
v 2.929999 2.483967 -12.116496
v 2.909627 2.483967 -12.096471
v 2.889255 2.483967 -12.076446
v 2.868884 2.483967 -12.056420
v 3.024832 2.320392 -12.005745
v 3.013507 2.320392 -11.985231
v 2.997084 2.320392 -11.964993
v 2.978092 2.320392 -11.944892
v 3.024832 2.483967 -12.005745
v 3.013507 2.483967 -11.985231
v 2.997084 2.483967 -11.964993
v 2.978092 2.483967 -11.944892
vn -0.7131 -0.0000 0.7010
vn -0.7010 -0.0000 -0.7131
vn 0.7131 -0.0000 -0.7010
vn 0.7010 -0.0000 0.7131
vn -0.0000 -1.0000 -0.0000
vn -0.0000 1.0000 -0.0000
vn -0.2523 -0.0000 0.9676
vn 0.9718 -0.0000 -0.2357
vn 0.9853 -0.0000 0.1710
vn 0.6926 -0.0000 0.7213
vn 0.1541 -0.0000 0.9881
vn 0.4682 -0.0000 0.8836
vn 0.6167 -0.0000 0.7872
vn 0.6742 -0.0000 0.7385
vn 0.7200 -0.0000 -0.6940
vn 0.7344 -0.0000 -0.6788
vn 0.7756 -0.0000 -0.6312
vn 0.8611 -0.0000 -0.5084
vn -0.7063 -0.0000 0.7080
vn -0.6912 -0.0000 0.7226
vn -0.6444 -0.0000 0.7647
vn -0.5231 -0.0000 0.8523
vn 0.7093 -0.0000 0.7049
vn 0.7269 -0.0000 0.6868
vn 0.7765 -0.0000 0.6301
vn 0.8755 -0.0000 0.4833
vt 0.541667 0.000000
vt 0.625000 0.000000
vt 0.625000 0.250000
vt 0.541667 0.250000
vt 0.625000 0.500000
vt 0.541667 0.500000
vt 0.625000 0.750000
vt 0.541667 0.750000
vt 0.625000 1.000000
vt 0.541667 1.000000
vt 0.125000 0.500000
vt 0.375000 0.500000
vt 0.375000 0.750000
vt 0.125000 0.750000
vt 0.875000 0.500000
vt 0.875000 0.750000
vt 0.458333 0.750000
vt 0.458333 1.000000
vt 0.375000 1.000000
vt 0.458333 0.500000
vt 0.375000 0.250000
vt 0.458333 0.250000
vt 0.375000 0.000000
vt 0.458333 0.000000
vt 0.458333 0.756807
vt 0.541667 0.756807
vt 0.458333 0.972772
vt 0.458333 0.965966
vt 0.541667 0.965966
vt 0.541667 0.972772
vt 0.458333 0.784034
vt 0.541667 0.784034
vt 0.458333 0.965966
vt 0.458333 0.993193
vt 0.541667 0.993193
vt 0.458333 0.986386
vt 0.541667 0.986386
vt 0.458333 0.979579
vt 0.541667 0.979579
vt 0.458333 0.965965
vt 0.458333 0.784034
vt 0.458333 0.965966
vt 0.458333 0.784034
vt 0.541667 0.784034
vt 0.458333 0.777228
vt 0.541667 0.777228
vt 0.458333 0.770421
vt 0.541667 0.770421
vt 0.458333 0.763614
vt 0.541667 0.763614
vt 0.458333 0.979579
vt 0.458333 0.972772
vt 0.458333 0.777228
s 0
f 106/54/27 98/55/27 100/56/27 107/57/27
f 107/57/28 100/56/28 104/58/28 109/59/28
f 109/59/29 104/58/29 102/60/29 111/61/29
f 111/61/30 102/60/30 98/62/30 106/63/30
f 99/64/31 103/65/31 101/66/31 97/67/31
f 104/58/32 100/68/32 98/69/32 102/60/32
f 101/66/30 112/70/30 105/71/30 97/72/30
f 112/70/30 111/61/30 106/63/30 105/71/30
f 103/65/29 110/73/29 112/70/29 101/66/29
f 110/73/29 109/59/29 111/61/29 112/70/29
f 99/74/28 108/75/28 110/73/28 103/65/28
f 108/75/28 107/57/28 109/59/28 110/73/28
f 97/76/27 105/77/27 108/75/27 99/74/27
f 105/77/27 106/54/27 107/57/27 108/75/27
f 145/77/33 117/77/33 118/54/33 156/54/33
f 160/61/34 119/61/34 120/70/34 152/70/34
f 185/78/35 120/70/35 119/61/35 189/79/35
f 137/80/36 126/81/36 128/82/36 141/83/36
f 126/81/30 125/84/30 127/85/30 128/82/30
f 164/82/32 128/82/32 127/85/32 168/85/32
f 172/86/31 176/84/31 125/84/31 126/81/31
f 117/71/37 140/87/37 144/88/37 118/63/37
f 140/87/38 139/89/38 143/90/38 144/88/38
f 139/89/39 138/91/39 142/92/39 143/90/39
f 138/91/40 137/80/40 141/83/40 142/92/40
f 122/93/31 121/94/31 173/94/31 169/95/31
f 169/95/31 173/94/31 174/94/31 170/86/31
f 170/86/31 174/94/31 175/96/31 171/86/31
f 171/86/31 175/96/31 176/84/31 172/86/31
f 124/82/32 161/82/32 165/85/32 123/85/32
f 161/82/32 162/82/32 166/85/32 165/85/32
f 162/82/32 163/82/32 167/97/32 166/85/32
f 163/82/32 164/82/32 168/85/32 167/97/32
f 115/61/41 157/61/41 149/70/41 116/70/41
f 157/61/42 158/61/42 150/70/42 149/70/42
f 158/61/43 159/61/43 151/70/43 150/70/43
f 159/61/44 160/61/44 152/70/44 151/70/44
f 113/77/45 148/77/45 153/54/45 114/54/45
f 148/77/46 147/77/46 154/54/46 153/54/46
f 147/77/47 146/77/47 155/54/47 154/54/47
f 146/77/48 145/77/48 156/54/48 155/54/48
f 125/84/49 188/98/49 192/99/49 127/85/49
f 188/98/50 187/100/50 191/101/50 192/99/50
f 187/100/51 186/102/51 190/103/51 191/101/51
f 186/102/52 185/78/52 189/79/52 190/103/52
f 114/54/32 153/54/32 154/54/32 155/54/32 156/54/32 118/54/32 144/88/32 143/90/32 142/92/32 141/83/32 128/82/32 164/82/32 163/82/32 162/82/32 161/82/32 124/82/32 133/83/32 134/92/32 135/90/32 136/88/32
f 113/77/31 132/87/31 131/89/31 130/104/31 129/105/31 122/93/31 169/95/31 170/86/31 171/86/31 172/86/31 126/81/31 137/80/31 138/91/31 139/89/31 140/87/31 117/77/31 145/77/31 146/77/31 147/77/31 148/77/31
f 120/70/31 185/78/31 186/102/31 187/100/31 188/98/31 125/84/31 176/84/31 175/96/31 174/94/31 173/94/31 121/94/31 180/106/31 179/100/31 178/102/31 177/78/31 116/70/31 149/70/31 150/70/31 151/70/31 152/70/31
f 119/61/32 160/61/32 159/61/32 158/61/32 157/61/32 115/61/32 181/79/32 182/103/32 183/101/32 184/99/32 123/85/32 165/85/32 166/85/32 167/97/32 168/85/32 127/85/32 192/99/32 191/101/32 190/103/32 189/79/32
l 115 111
l 112 116
l 113 105
l 106 114
