# Blender 4.1.1
# www.blender.org
o Boden
v -8.000000 0.000000 -10.266771
v 8.000000 0.000000 -10.266771
v -8.000000 0.000000 -4.000000
v 8.000000 0.000000 -4.000000
v -8.000000 0.504886 -4.000000
v 8.000000 0.504886 -4.000000
v -8.000000 0.504886 -1.400000
v 8.000000 0.504886 -1.400000
v -8.000000 1.009772 -1.400000
v -8.000000 1.009772 1.200000
v 8.000000 1.009772 1.200000
v 8.000000 1.009772 -1.400000
v -8.000000 1.514658 1.200000
v -8.000000 1.514658 3.800000
v 8.000000 1.514658 3.800000
v 8.000000 1.514658 1.200000
v -8.000000 2.019545 3.800000
v -8.000000 2.019545 6.400000
v 7.468517 2.019545 6.400000
v 8.000000 2.019545 3.800000
v -8.000000 2.019545 6.400000
v 7.468517 2.019545 6.400000
v -8.000000 2.524431 6.400000
v 7.468517 2.524431 6.400000
v -8.000000 2.524431 9.000000
v -8.000000 2.524431 6.400000
v 7.468517 2.524431 6.400000
v 3.307101 2.524431 9.000000
v -8.000000 2.019545 5.100000
v 7.842492 2.019545 5.127058
v 6.089044 2.524356 8.136371
v 5.011948 2.524356 8.689948
v 6.873484 2.524356 7.417005
v 4.684164 0.000000 -10.266771
v 1.008228 0.000000 -10.266771
v 1.008228 0.000000 -10.587046
v -8.000000 0.000000 -10.587046
v 8.000000 0.000000 -10.587046
v 4.684164 0.000000 -10.587046
v 1.008228 0.000000 -15.016271
v -8.000000 0.000000 -15.016271
v 8.000000 0.000000 -15.016271
v 4.684164 0.000000 -15.016271
vn -0.0000 -0.0000 -1.0000
vn -0.0000 1.0000 -0.0000
vn -0.0000 -1.0000 -0.0000
vt 0.748229 1.000000
vt 0.716673 1.000000
vt 0.716673 0.000000
vt 0.748229 0.000000
vt 0.779784 1.000000
vt 0.779784 0.000000
vt 0.811339 0.000000
vt 0.811340 1.000000
vt 0.779784 1.000000
vt 0.779784 0.000000
vt 0.647563 0.000000
vt 0.647563 1.000000
vt 0.590254 1.000000
vt 0.590253 0.000000
vt 1.000000 0.966782
vt 0.942690 0.966782
vt 0.942690 0.000000
vt 1.000000 0.000000
vt 0.295127 1.000000
vt 0.295127 0.000000
vt 0.590254 0.000000
vt 0.590253 1.000000
vt 0.716673 1.000000
vt 0.554173 1.000000
vt 0.554173 -0.000000
vt 0.716673 -0.000000
vt 0.391673 -0.000000
vt 0.391673 1.000000
vt 0.942690 0.966782
vt 0.647563 0.966782
vt 0.647563 0.260089
vt 0.682757 0.153536
vt 0.745594 0.086217
vt 0.827250 0.037190
vt 0.942690 0.000000
vt 0.150635 0.990156
vt 0.000000 1.000000
vt 0.000000 0.000000
vt 0.147563 0.000000
vt 0.295127 0.000000
vt 0.295127 0.966782
vt 0.883014 1.000000
vt 0.883014 0.631968
vt 0.895081 0.631968
vt 0.895081 1.000000
vt 0.391673 -0.000000
vt 0.391673 0.207240
vt 0.391673 0.436986
vt 0.391673 1.000000
vt 0.000000 1.000000
vt -0.000000 0.000000
vt 0.000000 0.789151
vt 0.000000 0.653682
vt 0.012067 0.653682
vt 0.012067 0.789151
vt 0.000000 0.207240
vt 0.020017 0.207240
vt 0.020017 0.436986
vt 0.000000 0.436986
vt 0.296844 0.207240
vt 0.296844 0.436986
vt 0.020017 0.000000
vt 0.296844 0.000000
vt 0.020017 1.000000
vt 0.296844 1.000000
s 0
f 3/1/1 5/2/1 6/3/1 4/4/1
f 7/5/1 9/1/1 12/4/1 8/6/1
f 11/7/1 10/8/1 13/9/1 16/10/1
f 15/11/1 14/12/1 17/13/1 20/14/1
f 18/15/1 23/16/1 24/17/1 19/18/1
f 16/19/2 13/20/2 14/21/2 15/22/2
f 9/23/2 10/24/2 11/25/2 12/26/2
f 8/27/2 6/25/2 5/24/2 7/28/2
f 26/29/2 25/30/2 28/31/2 32/32/2 31/33/2 33/34/2 27/35/2
f 30/36/2 20/37/2 17/38/2 29/39/2 21/40/2 22/41/2
f 35/42/3 1/43/3 37/44/3 36/45/3
f 2/46/2 34/47/2 35/48/2 1/49/2 3/50/2 4/51/2
f 2/52/3 34/53/3 39/54/3 38/55/3
f 34/56/2 39/57/2 36/58/2 35/59/2
f 36/58/2 39/57/2 43/60/2 40/61/2
f 38/62/2 42/63/2 43/60/2 39/57/2
f 37/64/2 36/58/2 40/61/2 41/65/2
