# Blender 4.1.1
# www.blender.org
o Wand
v -8.000000 0.000000 -10.266771
v 8.000000 0.000000 -10.266771
v -8.000000 0.000000 -4.000000
v 8.000000 0.000000 -4.000000
v -8.000000 0.000000 -4.000000
v 8.000000 0.000000 -4.000000
v -8.000000 0.504886 -4.000000
v 8.000000 0.504886 -4.000000
v -8.000000 0.504886 -1.400000
v 8.000000 0.504886 -1.400000
v -8.000000 1.009772 -1.400000
v -8.000000 1.009772 1.200000
v 8.000000 1.009772 1.200000
v 8.000000 1.009772 -1.400000
v -8.000000 1.514658 1.200000
v -8.000000 1.514658 3.800000
v 8.000000 1.514658 3.800000
v 8.000000 1.514658 1.200000
v -8.000000 2.019545 3.800000
v -8.000000 2.019545 6.400000
v 7.468517 2.019545 6.400000
v 8.000000 2.019545 3.800000
v -8.000000 2.019545 6.400000
v 7.468517 2.019545 6.400000
v -8.000000 2.524431 9.000000
v -8.000000 2.524431 6.400000
v 7.468517 2.524431 6.400000
v -8.000000 2.524431 9.000000
v -8.000000 2.524431 6.400000
v 7.468517 2.524431 6.400000
v 3.307101 2.524431 9.000000
v -8.000000 2.019545 5.100000
v 7.842492 2.019545 5.127058
v 6.089044 2.524356 8.136371
v 5.011948 2.524356 8.689948
v 6.873484 2.524356 7.417005
v 8.000000 7.913354 -4.000000
v 8.000000 7.913354 -10.266771
v -8.000000 7.913354 -10.266771
v -8.000000 7.913354 -4.000000
v 8.000000 7.913354 -1.400000
v -8.000000 7.913354 -1.400000
v -8.000000 7.913354 1.200000
v -8.000000 7.913354 3.800000
v -8.000000 7.913354 5.100000
v -8.000000 7.913354 6.400000
v 7.842492 7.913354 5.127058
v 8.000000 7.913354 3.800000
v 8.000000 7.913354 1.200000
v 7.468517 7.913354 6.400000
v 5.011948 7.913354 8.689948
v 6.089044 7.913354 8.136371
v -8.000000 7.913354 6.400000
v -8.000000 7.913354 9.000000
v 7.468517 7.913354 6.400000
v 6.873484 7.913354 7.417005
v 3.307101 7.913354 9.000000
v 4.684164 0.000000 -10.266771
v 1.008228 0.000000 -10.266771
v 4.684164 7.913354 -10.266771
v 1.008228 7.913354 -10.266771
v 5.120000 7.913354 -4.000000
v -0.213333 7.913354 -4.000000
v 4.684184 7.913354 6.400000
v -0.471989 7.913354 6.400000
v 5.120000 7.913354 3.800000
v -0.213333 7.913354 3.800000
v 5.120000 7.913354 1.200000
v -0.213333 7.913354 1.200000
v 5.120000 7.913354 -1.400000
v -0.213333 7.913354 -1.400000
v 4.990843 7.913354 5.122187
v -0.289987 7.913354 5.113168
v 8.000000 4.827146 1.200000
v 8.000000 4.827146 -1.400000
v 7.842492 4.827146 5.127058
v 7.468517 4.827146 6.400000
v -8.000000 4.827146 6.400000
v -8.000000 4.827146 -4.000000
v -8.000000 4.827146 -1.400000
v -8.000000 4.827146 1.200000
v -8.000000 4.827146 3.800000
v 8.000000 4.827146 -10.266771
v 8.000000 4.827146 -4.000000
v -8.000000 4.827146 5.100000
v -8.000000 4.827146 -10.266771
v 8.000000 4.827146 3.800000
v 4.684164 4.827146 -10.266771
v 1.008228 4.827146 -10.266771
v 1.008228 0.000000 -10.587046
v -8.000000 0.000000 -10.587046
v 1.008228 7.913354 -10.587046
v -8.000000 7.913354 -10.587046
v 8.000000 4.827146 -10.587046
v 8.000000 7.913354 -10.587046
v -8.000000 4.827146 -10.587046
v 8.000000 0.000000 -10.587046
v 4.684164 0.000000 -10.587046
v 4.684164 7.913354 -10.587046
v 4.684164 4.827146 -10.587046
v 1.008228 4.827146 -10.587046
v 1.008228 0.000000 -15.016271
v -8.000000 0.000000 -15.016271
v 8.000000 0.000000 -15.016271
v 4.684164 0.000000 -15.016271
v 1.008228 8.096489 -15.016271
v -8.000000 8.096489 -15.016271
v 8.000000 8.096489 -15.016271
v 4.684164 8.096489 -15.016271
vn 1.0000 -0.0000 -0.0000
vn -0.0000 1.0000 -0.0000
vn -0.9595 -0.0000 -0.2819
vn -1.0000 -0.0000 -0.0000
vn -0.0000 -1.0000 -0.0000
vn -0.9930 -0.0000 -0.1179
vn -0.0000 -0.0000 -1.0000
vn -0.0000 -0.0000 1.0000
vn -0.1789 -0.0000 -0.9839
vn -0.4571 -0.0000 -0.8894
vn -0.6759 -0.0000 -0.7370
vn -0.8631 -0.0000 -0.5050
vt 0.666667 0.602593
vt 1.000000 0.602593
vt 1.000000 0.998261
vt 0.666667 0.998261
vt 0.000000 0.450912
vt 0.226742 0.450912
vt 0.226742 0.720056
vt 0.000000 0.720056
vt 0.453484 0.450912
vt 0.453484 0.720056
vt 0.459722 0.484123
vt 0.666667 0.177916
vt 1.000000 0.177916
vt 0.226742 0.073974
vt 0.453484 0.073974
vt 0.657392 0.514285
vt 0.657392 0.903953
vt 0.490638 0.903953
vt 0.490638 0.514285
vt 0.773258 0.420968
vt 1.000000 0.420968
vt 1.000000 0.690112
vt 0.773258 0.690112
vt 0.325000 0.820000
vt 0.716673 0.792760
vt 0.716673 1.000000
vt 0.325000 1.000000
vt 0.162500 0.820000
vt 0.162500 1.000000
vt 0.079863 0.811928
vt 0.162500 0.820000
vt 0.079559 0.990156
vt 0.325000 1.000000
vt 0.000000 0.820000
vt 0.000000 1.000000
vt 0.325000 0.706694
vt 0.325000 0.000000
vt 0.487500 0.000000
vt 0.487500 0.966782
vt 0.423937 0.929593
vt 0.378977 0.880565
vt 0.344378 0.813247
vt 0.000000 0.792761
vt 0.000000 0.966782
vt 0.546516 0.420968
vt 0.546516 0.690112
vt 0.000000 0.690112
vt 0.000000 0.420968
vt 0.500000 0.602593
vt 0.500000 0.998261
vt 0.333333 0.998261
vt 0.333333 0.602593
vt 0.322346 0.903953
vt 0.322346 0.514285
vt 1.000000 0.450912
vt 1.000000 0.720056
vt 0.000000 0.514285
vt 0.000000 0.903953
vt 0.929797 0.686839
vt 0.929797 0.580064
vt 0.939100 0.580064
vt 0.939100 0.686839
vt 0.929797 0.483748
vt 0.939100 0.483748
vt 0.000000 -0.000000
vt 0.081250 -0.000000
vt 0.080427 0.481876
vt 0.000000 0.470501
vt 0.000000 -0.000000
vt 0.162500 -0.000000
vt 0.162500 0.486667
vt 0.000000 0.486667
vt 0.162500 -0.000000
vt 0.325000 -0.000000
vt 0.325000 0.486667
vt 0.162500 0.486667
vt 0.325000 -0.000000
vt 0.325000 0.486667
vt 0.716673 -0.000000
vt 0.716673 0.563014
vt 0.192888 0.436986
vt 0.192888 1.000000
vt 0.000000 1.000000
vt 0.000000 0.436986
vt 0.939100 0.803254
vt 0.939100 0.713609
vt 0.948371 0.713609
vt 0.948371 0.803254
vt 1.000000 0.029944
vt 0.453484 0.029944
vt 0.943052 0.419844
vt 0.943052 0.313069
vt 0.952355 0.313069
vt 0.952355 0.419844
vt 0.546516 0.000000
vt 0.000000 0.000000
vt 0.192888 0.000000
vt 0.192888 0.207240
vt 0.000000 0.207240
vt 0.000000 -0.000000
vt 0.494585 -0.000000
vt 0.494585 0.207240
vt 0.494585 0.436986
vt 0.494585 1.000000
vt 0.933780 0.453284
vt 0.933780 0.313069
vt 0.943052 0.313069
vt 0.943052 0.453284
vt 0.948403 0.483748
vt 0.948403 0.573394
vt 0.939100 0.573394
vt 0.939100 0.483748
vt 0.929797 0.948503
vt 0.939100 0.948503
vt 0.933780 0.313069
vt 0.933780 0.453284
vt 0.924477 0.453284
vt 0.924477 0.313069
vt 0.939100 0.943470
vt 0.948371 0.943470
vt 0.948403 0.713609
vt 0.939100 0.713609
vt 0.563014 0.301697
vt 0.563014 0.494585
vt 0.000000 0.494585
vt 1.000000 0.000000
vt 1.000000 0.301697
vt 0.792760 0.301697
vt 0.792760 0.000000
vt -0.000000 0.436986
vt 0.000000 0.207240
vt 0.506031 0.207240
vt 0.506031 0.436986
vt -0.000000 0.000000
vt 0.506031 -0.000000
vt 0.000000 1.000000
vt 0.506031 1.000000
vt -0.000000 0.000000
vt 0.563014 0.000000
vt 1.000000 0.494585
vt 0.000000 0.301697
vt 0.792760 0.494585
vt 0.000000 0.118005
vt 0.226742 0.118005
vt 0.666667 0.242645
vt 0.500000 0.242645
vt 0.333333 0.242645
vt 0.000000 0.307374
vt 0.333333 0.307374
vt 0.333333 0.998261
vt 0.000000 0.998261
vt 0.191443 0.293371
vt 1.058557 0.293371
vt 1.058557 0.706635
vt 0.191443 0.706635
vt 0.058557 0.706635
vt 0.058557 0.293365
vt 0.905630 0.223532
vt 1.000000 0.223532
vt 1.000000 0.903953
vt 0.905630 0.903953
vt 0.797699 0.223532
vt 0.797699 0.903953
vt 0.657393 0.223542
vt 0.657393 0.903953
vt 0.657392 0.159794
vt 0.490638 0.159794
vt 0.322346 0.159794
vt 0.000000 0.096047
vt 0.322346 0.096047
vt 0.773258 0.088061
vt 1.000000 0.088061
vt 0.546516 0.044030
vt 0.773258 0.044030
s 0
f 82/1/1 81/2/1 43/3/1 44/4/1
f 81/5/1 80/6/1 42/7/1 43/8/1
f 80/6/1 79/9/1 40/10/1 42/7/1
f 3/11/2 5/11/2 6/11/2 4/11/2
f 23/11/2 20/11/2 26/11/2 29/11/2
f 16/12/1 15/13/1 81/2/1 82/1/1
f 21/11/2 24/11/2 30/11/2 27/11/2
f 9/14/1 7/15/1 79/9/1 80/6/1
f 77/16/3 50/17/3 47/18/3 76/19/3
f 75/20/4 74/21/4 49/22/4 41/23/4
f 62/24/5 60/25/5 38/26/5 37/27/5
f 70/28/5 62/24/5 37/27/5 41/29/5
f 72/30/5 66/31/5 48/29/5 47/32/5
f 66/31/5 68/24/5 49/33/5 48/29/5
f 68/34/5 70/28/5 41/29/5 49/35/5
f 57/36/5 54/37/5 53/38/5 55/39/5 56/40/5 52/41/5 51/42/5
f 64/43/5 72/30/5 47/32/5 50/44/5
f 84/45/4 37/46/4 38/47/4 83/48/4
f 85/49/1 45/50/1 46/51/1 78/52/1
f 76/19/6 47/18/6 48/53/6 87/54/6
f 86/55/1 39/56/1 40/10/1 79/9/1
f 74/57/4 87/54/4 48/53/4 49/58/4
f 82/1/1 44/4/1 45/50/1 85/49/1
f 84/45/4 75/20/4 41/23/4 37/46/4
f 61/59/2 60/60/2 99/61/2 92/62/2
f 60/60/2 38/63/2 95/64/2 99/61/2
f 46/65/5 45/66/5 73/67/5 65/68/5
f 65/68/5 73/67/5 72/30/5 64/43/5
f 43/69/5 42/70/5 71/71/5 69/72/5
f 69/72/5 71/71/5 70/28/5 68/34/5
f 44/73/5 43/74/5 69/75/5 67/76/5
f 67/76/5 69/75/5 68/24/5 66/31/5
f 45/66/5 44/73/5 67/76/5 73/67/5
f 73/67/5 67/76/5 66/31/5 72/30/5
f 42/70/5 40/77/5 63/78/5 71/71/5
f 71/71/5 63/78/5 62/24/5 70/28/5
f 40/77/5 39/79/5 61/80/5 63/78/5
f 63/78/5 61/80/5 60/25/5 62/24/5
f 101/81/7 96/82/7 93/83/7 92/84/7
f 86/85/4 39/86/4 93/87/4 96/88/4
f 1/89/1 86/55/1 79/9/1 3/90/1
f 88/91/5 89/92/5 101/93/5 100/94/5
f 4/95/4 84/45/4 83/48/4 2/96/4
f 94/97/7 100/98/7 99/99/7 95/100/7
f 100/98/7 101/81/7 92/84/7 99/99/7
f 97/101/7 98/102/7 100/98/7 94/97/7
f 90/103/7 91/104/7 96/82/7 101/81/7
f 58/105/4 88/106/4 100/107/4 98/108/4
f 38/109/1 83/110/1 94/111/1 95/112/1
f 39/113/2 61/59/2 92/62/2 93/114/2
f 89/115/1 59/116/1 90/117/1 101/118/1
f 1/119/4 86/85/4 96/88/4 91/120/4
f 83/110/1 2/121/1 97/122/1 94/111/1
f 89/123/8 61/124/8 39/125/8
f 2/126/8 83/127/8 88/128/8 58/129/8
f 102/130/8 105/131/8 109/132/8 106/133/8
f 104/134/8 108/135/8 109/132/8 105/131/8
f 103/136/8 102/130/8 106/133/8 107/137/8
f 1/138/8 59/139/8 89/123/8
f 88/128/8 83/127/8 38/140/8
f 86/141/8 1/138/8 89/123/8
f 89/123/8 88/128/8 60/142/8
f 88/128/8 38/140/8 60/142/8
f 39/125/8 86/141/8 89/123/8
f 89/123/8 60/142/8 61/124/8
f 12/143/1 11/144/1 80/6/1 81/5/1
f 19/145/1 82/1/1 85/49/1 32/146/1
f 32/146/1 85/49/1 78/52/1 23/147/1
f 28/148/1 29/149/1 53/150/1 54/151/1
f 31/152/7 28/153/7 54/154/7 57/155/7
f 31/152/9 57/155/9 51/156/9 35/157/9
f 34/158/10 35/159/10 51/160/10 52/161/10
f 36/162/11 34/158/11 52/161/11 56/163/11
f 30/164/12 36/162/12 56/163/12 55/165/12
f 24/166/3 77/16/3 76/19/3 33/167/3
f 33/167/6 76/19/6 87/54/6 22/168/6
f 18/169/4 17/170/4 87/54/4 74/57/4
f 14/171/4 13/172/4 74/21/4 75/20/4
f 8/173/4 10/174/4 75/20/4 84/45/4
l 32 20
l 26 25
l 28 25
l 21 33
