# Blender 4.1.1
# www.blender.org
o Plane
v -0.000000 -0.440356 0.052809
v 0.000000 -1.591016 -0.025471
v -0.000000 1.500715 0.111105
v 0.000000 -1.591016 -0.158488
v 0.000000 -1.555958 -0.006900
v 0.000000 -1.545263 -0.184146
v -0.000000 -0.441611 -0.101076
v -0.000000 -0.441636 -0.532083
v -0.000000 0.234462 -0.916081
v -0.000000 0.324117 -0.790794
v -0.000000 0.391460 -0.394097
v -0.000000 0.485682 -0.205036
v -0.000000 0.598780 -0.200954
v -0.000000 0.698664 -0.236510
v -0.000000 0.785924 -0.290700
v -0.000000 0.895835 -0.297702
v -0.000000 0.898156 -0.310366
v -0.000000 1.219125 -0.329887
v -0.000000 1.287163 -0.294669
v -0.000000 1.309900 -0.316077
v -0.000000 1.408139 -0.280859
v -0.000000 1.438833 -0.223922
v -0.000000 1.488403 -0.097146
v -0.000000 1.502110 -0.006233
v -0.000000 0.336753 0.331556
v -0.000000 0.259109 0.545230
v -0.000000 0.137269 0.793788
v -0.000000 -0.440789 0.493092
v -0.000000 0.617036 0.327502
v -0.000000 0.562489 0.292623
v -0.000000 0.434019 0.286814
v -0.000000 0.813572 0.416248
v -0.000000 0.736420 0.368948
v -0.000000 0.736705 0.342614
v -0.000000 1.222376 0.419000
v -0.000000 1.022867 0.417948
v -0.000000 0.987498 0.441000
v -0.000000 0.867256 0.435323
v -0.000000 1.474824 0.195725
v -0.000000 1.403054 0.318577
v -0.000000 1.315992 0.385719
v 0.011124 -0.440789 0.493092
v 0.011124 -0.440356 0.052809
v 0.011124 -1.555958 -0.006900
v 0.011124 -1.591016 -0.025471
v 0.011124 -1.591016 -0.158488
v 0.011124 1.502110 -0.006233
v 0.011124 1.500715 0.111105
v 0.011124 -1.545263 -0.184146
v 0.011124 -0.441611 -0.101076
v 0.011124 -0.441636 -0.532083
v 0.011124 0.234462 -0.916081
v 0.011124 0.324117 -0.790794
v 0.011124 0.391460 -0.394097
v 0.011124 0.485682 -0.205036
v 0.011124 0.598780 -0.200954
v 0.011124 0.698664 -0.236510
v 0.011124 0.785924 -0.290700
v 0.011124 0.895835 -0.297702
v 0.011124 0.898156 -0.310366
v 0.011124 1.219125 -0.329887
v 0.011124 1.287163 -0.294669
v 0.011124 1.309900 -0.316077
v 0.011124 1.408139 -0.280859
v 0.011124 1.438833 -0.223922
v 0.011124 1.488403 -0.097146
v 0.011124 0.434019 0.286814
v 0.011124 0.336753 0.331556
v 0.011124 0.259109 0.545230
v 0.011124 0.137269 0.793788
v 0.011124 0.736705 0.342614
v 0.011124 0.617036 0.327502
v 0.011124 0.562489 0.292623
v 0.011124 0.867256 0.435323
v 0.011124 0.813572 0.416248
v 0.011124 0.736420 0.368948
v 0.011124 1.315992 0.385719
v 0.011124 1.222376 0.419000
v 0.011124 1.022867 0.417948
v 0.011124 0.987498 0.441000
v 0.011124 1.474824 0.195725
v 0.011124 1.403054 0.318577
vn -1.0000 -0.0000 -0.0000
vn 1.0000 -0.0000 -0.0000
vn -0.0000 -0.5276 -0.8495
vn -0.0000 0.4681 -0.8837
vn -0.0000 -0.1253 0.9921
vn -0.0000 -0.0636 -0.9980
vn -0.0000 -1.0000 -0.0000
vn -0.0000 -0.5387 0.8425
vn -0.0000 -0.9836 -0.1802
vn -0.0000 0.9999 0.0119
vn -0.0000 -0.0452 0.9990
vn -0.0000 -0.0607 -0.9982
vn -0.0000 -0.0534 0.9986
vn -0.0000 -0.3348 0.9423
vn -0.0000 0.4597 -0.8881
vn -0.0000 -0.4891 -0.8722
vn -0.0000 -0.5227 0.8525
vn -0.0000 -0.6855 -0.7281
vn -0.0000 0.0751 -0.9972
vn -0.0000 -0.9999 -0.0108
vn -0.0000 0.3375 -0.9413
vn -0.0000 -1.0000 0.0001
vn -0.0000 0.3350 0.9422
vn -0.0000 0.8802 -0.4745
vn -0.0000 -0.4939 -0.8695
vn -0.0000 -0.0053 1.0000
vn -0.0000 0.9313 -0.3642
vn -0.0000 0.8132 -0.5819
vn -0.0000 0.5460 0.8378
vn -0.0000 0.9888 -0.1491
vn -0.0000 0.9859 -0.1674
vn -0.0000 -0.0472 0.9989
vn -0.0000 0.4179 0.9085
vn -0.0000 0.8950 -0.4460
vn -0.0000 0.9562 0.2926
vn -0.0000 0.9399 0.3415
vn -0.0000 0.0361 -0.9993
vn -0.0000 0.8635 0.5044
vn -0.0000 0.8979 0.4402
vn -0.0000 -0.3354 -0.9421
vn -0.0000 0.6107 0.7919
vn -0.0000 -1.0000 -0.0010
vn -0.0000 -0.4615 0.8872
<<<<<<< HEAD
vt 0.533429 0.659188
vt 0.500476 0.365253
vt 0.363339 0.611980
vt 0.616749 0.628049
vt 0.557372 0.657641
vt 0.524722 0.366411
=======
vt 0.584152 0.671392
vt 0.523352 0.371600
vt 0.270332 0.623243
vt 0.694723 0.640930
vt 0.523352 0.371600
>>>>>>> main
vt -0.013220 0.000000
vt 0.000000 0.000000
vt -0.417378 0.009843
vt -0.441034 0.009843
<<<<<<< HEAD
vt 0.406395 0.972728
vt 0.433218 0.980935
vt 0.470412 0.981377
vt 0.499230 0.977032
vt 0.561841 0.913243
vt 0.539415 0.961319
vt 0.557463 0.951590
vt 0.568627 0.920450
vt 0.573004 0.891676
vt 0.562802 0.789199
vt 0.566817 0.789934
vt 0.335954 0.829465
vt 0.346170 0.922381
vt 0.367453 0.949978
vt 0.335621 0.892706
vt 0.330447 0.780140
vt 0.328647 0.818254
vt 0.351487 0.738667
vt 0.336493 0.763123
vt 0.359834 0.738758
vt 0.375680 0.683534
vt 0.364624 0.700824
vt 0.532135 0.695037
vt 0.543406 0.726699
vt 0.560583 0.754359
vt 0.377521 0.642811
vt 0.216820 0.548747
vt 0.295608 0.587368
vt 0.312135 0.365513
vt 0.451697 0.365650
vt 0.476510 0.000912
vt 0.470623 0.012024
vt 0.518674 0.000912
vt 0.526807 0.015415
vt 0.758817 0.579556
vt 0.637097 0.365245
vt 0.719104 0.607974
vt 0.593358 0.629321
vt 0.494935 0.976864
vt 0.458083 0.976427
vt 0.431507 0.968295
vt 0.392924 0.945755
vt 0.371837 0.918412
vt 0.361384 0.889010
vt 0.361715 0.826351
vt 0.354475 0.815243
vt 0.356258 0.777480
vt 0.362249 0.760619
vt 0.385374 0.736478
vt 0.377104 0.736389
vt 0.390121 0.698895
vt 0.401075 0.681763
vt 0.586475 0.786455
vt 0.556090 0.693161
vt 0.585522 0.909357
vt 0.563303 0.956992
vt 0.523487 0.972560
vt 0.592246 0.916498
vt 0.581185 0.947352
vt 0.590452 0.787184
vt 0.596583 0.887989
vt 0.567257 0.724531
vt 0.584276 0.751936
vt 0.402899 0.641415
vt 0.388847 0.610868
vt 0.321740 0.586482
vt 0.338115 0.366669
vt 0.243677 0.548217
vt 0.476392 0.366805
vt 0.495144 0.016434
vt 0.500977 0.005424
vt 0.542753 0.005424
vt 0.550811 0.019793
vt 0.660085 0.366403
vt 0.780686 0.578742
vt 0.741337 0.606899
s 0
f 12/1/1 7/2/1 25/3/1
f 54/4/2 55/5/2 50/6/2
f 15/7/3 57/7/3 14/7/3
f 2/8/4 44/8/4 45/8/4
f 29/8/5 71/8/5 34/8/5
f 59/7/6 15/7/6 16/7/6
f 46/8/7 2/8/7 4/8/7
f 73/8/8 29/8/8 30/8/8
f 60/8/9 16/8/9 17/8/9
f 48/8/10 24/8/10 3/8/10
f 67/8/11 30/8/11 31/8/11
f 61/7/12 17/7/12 18/7/12
f 44/8/13 1/8/13 5/8/13
f 75/8/14 38/8/14 32/8/14
f 62/9/15 18/9/15 19/9/15
f 49/8/16 4/8/16 6/8/16
f 76/8/17 32/8/17 33/8/17
f 63/7/18 19/7/18 20/7/18
f 50/10/19 6/10/19 7/10/19
f 71/8/20 33/8/20 34/8/20
f 64/7/21 20/7/21 21/7/21
f 51/8/22 7/8/22 8/8/22
f 78/8/23 41/8/23 35/8/23
f 65/10/24 21/10/24 22/10/24
f 52/8/25 8/8/25 9/8/25
f 79/8/26 35/8/26 36/8/26
f 66/9/27 22/9/27 23/9/27
f 53/10/28 9/10/28 10/10/28
f 80/8/29 36/8/29 37/8/29
f 47/8/30 23/8/30 24/8/30
f 54/10/31 10/10/31 11/10/31
f 74/8/32 37/8/32 38/8/32
f 68/8/33 31/8/33 25/8/33
f 55/10/34 11/10/34 12/10/34
f 39/9/35 48/9/35 3/9/35
f 69/10/36 25/10/36 26/10/36
f 13/7/37 55/7/37 12/7/37
f 82/8/38 39/8/38 40/8/38
f 70/10/39 26/10/39 27/10/39
f 57/7/40 13/7/40 14/7/40
f 77/8/41 40/8/41 41/8/41
f 43/8/42 28/8/42 1/8/42
f 42/8/43 27/8/43 28/8/43
f 39/11/1 3/12/1 24/13/1
f 24/13/1 23/14/1 19/15/1
f 23/14/1 22/16/1 19/15/1
f 24/13/1 19/15/1 39/11/1
f 22/16/1 21/17/1 19/15/1
f 21/17/1 20/18/1 19/15/1
f 19/15/1 18/19/1 16/20/1
f 18/19/1 17/21/1 16/20/1
f 39/11/1 19/15/1 36/22/1
f 41/23/1 40/24/1 39/11/1
f 36/22/1 35/25/1 39/11/1
f 35/25/1 41/23/1 39/11/1
f 38/26/1 37/27/1 36/22/1
f 33/28/1 32/29/1 34/30/1
f 32/29/1 38/26/1 34/30/1
f 30/31/1 29/32/1 34/30/1
f 34/30/1 38/26/1 36/22/1
f 30/31/1 34/30/1 13/33/1
f 34/30/1 36/22/1 16/20/1
f 13/33/1 34/30/1 14/34/1
f 36/22/1 19/15/1 16/20/1
f 16/20/1 15/35/1 14/34/1
f 31/36/1 30/31/1 12/1/1
f 14/34/1 34/30/1 16/20/1
f 25/3/1 31/36/1 12/1/1
f 30/31/1 13/33/1 12/1/1
f 27/37/1 26/38/1 28/39/1
f 26/38/1 25/3/1 28/39/1
f 1/40/1 28/39/1 25/3/1
f 2/41/1 5/42/1 4/43/1
f 5/42/1 1/40/1 7/2/1
f 6/44/1 4/43/1 5/42/1
f 9/45/1 8/46/1 10/47/1
f 8/46/1 7/2/1 11/48/1
f 10/47/1 8/46/1 11/48/1
f 7/2/1 6/44/1 5/42/1
f 7/2/1 1/40/1 25/3/1
f 12/1/1 11/48/1 7/2/1
f 47/49/2 48/50/2 81/51/2
f 81/51/2 82/52/2 77/53/2
f 77/53/2 78/54/2 81/51/2
f 78/54/2 79/55/2 81/51/2
f 79/55/2 80/56/2 74/57/2
f 74/57/2 75/58/2 71/59/2
f 75/58/2 76/60/2 71/59/2
f 71/59/2 72/61/2 73/62/2
f 79/55/2 74/57/2 71/59/2
f 79/55/2 71/59/2 59/63/2
f 71/59/2 73/62/2 56/64/2
f 47/49/2 81/51/2 62/65/2
f 81/51/2 79/55/2 62/65/2
f 65/66/2 66/67/2 62/65/2
f 66/67/2 47/49/2 62/65/2
f 63/68/2 64/69/2 62/65/2
f 64/69/2 65/66/2 62/65/2
f 60/70/2 61/71/2 59/63/2
f 61/71/2 62/65/2 59/63/2
f 62/65/2 79/55/2 59/63/2
f 71/59/2 56/64/2 57/72/2
f 57/72/2 58/73/2 59/63/2
f 71/59/2 57/72/2 59/63/2
f 73/62/2 67/74/2 55/5/2
f 56/64/2 73/62/2 55/5/2
f 68/75/2 69/76/2 42/77/2
f 69/76/2 70/78/2 42/77/2
f 67/74/2 68/75/2 55/5/2
f 68/75/2 42/77/2 43/79/2
f 43/79/2 44/80/2 50/6/2
f 44/80/2 45/81/2 46/82/2
f 50/6/2 44/80/2 49/83/2
f 46/82/2 49/83/2 44/80/2
f 50/6/2 51/84/2 54/4/2
f 51/84/2 52/85/2 53/86/2
f 55/5/2 68/75/2 50/6/2
f 68/75/2 43/79/2 50/6/2
f 51/84/2 53/86/2 54/4/2
f 15/8/3 58/8/3 57/8/3
f 2/8/4 5/8/4 44/8/4
f 29/8/5 72/8/5 71/8/5
f 59/7/6 58/7/6 15/7/6
f 46/8/7 45/8/7 2/8/7
f 73/8/8 72/8/8 29/8/8
f 60/8/9 59/8/9 16/8/9
f 48/8/10 47/8/10 24/8/10
f 67/8/11 73/8/11 30/8/11
f 61/7/12 60/7/12 17/7/12
f 44/8/13 43/8/13 1/8/13
f 75/8/14 74/8/14 38/8/14
f 62/10/15 61/10/15 18/10/15
f 49/8/16 46/8/16 4/8/16
f 76/8/17 75/8/17 32/8/17
f 63/8/18 62/8/18 19/8/18
f 50/10/19 49/10/19 6/10/19
f 71/8/20 76/8/20 33/8/20
f 64/8/21 63/8/21 20/8/21
f 51/8/22 50/8/22 7/8/22
f 78/8/23 77/8/23 41/8/23
f 65/8/24 64/8/24 21/8/24
f 52/8/25 51/8/25 8/8/25
f 79/7/26 78/7/26 35/7/26
f 66/10/27 65/10/27 22/10/27
f 53/10/28 52/10/28 9/10/28
f 80/8/29 79/8/29 36/8/29
f 47/8/30 66/8/30 23/8/30
f 54/10/31 53/10/31 10/10/31
f 74/8/32 80/8/32 37/8/32
f 68/8/33 67/8/33 31/8/33
f 55/10/34 54/10/34 11/10/34
f 39/8/35 81/8/35 48/8/35
f 69/9/36 68/9/36 25/9/36
f 13/8/37 56/8/37 55/8/37
f 82/8/38 81/8/38 39/8/38
f 70/10/39 69/10/39 26/10/39
f 57/7/40 56/7/40 13/7/40
f 77/8/41 82/8/41 40/8/41
f 43/8/42 42/8/42 28/8/42
f 42/8/43 70/8/43 27/8/43
=======
vt 0.349771 0.991179
vt 0.399260 0.999549
vt 0.467884 1.000000
vt 0.521054 0.995569
vt 0.636573 0.930508
vt 0.595197 0.979543
vt 0.628496 0.969620
vt 0.649093 0.937859
vt 0.657170 0.908512
vt 0.638347 0.803993
vt 0.645753 0.804743
vt 0.219806 0.845062
vt 0.238654 0.939829
vt 0.277922 0.967976
vt 0.219191 0.909563
vt 0.209644 0.794753
vt 0.206325 0.833627
vt 0.248464 0.752454
vt 0.220801 0.777397
vt 0.263865 0.752547
vt 0.293101 0.696223
vt 0.272703 0.713858
vt 0.581765 0.707956
vt 0.602560 0.740248
vt 0.634252 0.768459
vt 0.296499 0.654689
vt 0.000000 0.558750
vt 0.145366 0.598141
vt 0.175859 0.371866
vt 0.433354 0.372006
vt 0.479135 0.000000
vt 0.468274 0.011334
vt 0.556929 0.000000
vt 0.571935 0.014792
vt 1.000000 0.590173
vt 0.775422 0.371592
vt 0.926727 0.619158
vt 0.694722 0.640930
vt 0.467884 1.000000
vt 0.399260 0.999549
vt 0.349771 0.991179
vt 0.277923 0.967976
vt 0.238655 0.939829
vt 0.219191 0.909563
vt 0.219806 0.845062
vt 0.206325 0.833627
vt 0.209644 0.794753
vt 0.220801 0.777397
vt 0.263864 0.752547
vt 0.248463 0.752454
vt 0.272703 0.713858
vt 0.293101 0.696223
vt 0.638347 0.803993
vt 0.595198 0.979543
vt 0.521054 0.995569
vt 0.649093 0.937859
vt 0.628496 0.969620
vt 0.645753 0.804743
vt 0.657170 0.908512
vt 0.634252 0.768459
vt 0.296499 0.654689
vt 0.270332 0.623243
vt 0.145366 0.598141
vt 0.175859 0.371866
vt 0.433354 0.372006
vt 0.468275 0.011334
vt 0.479135 0.000000
vt 0.556929 0.000000
vt 0.571935 0.014792
vt 0.775423 0.371592
vt 0.926727 0.619158
s 0
f 12/1/1 7/2/1 25/3/1
f 54/4/2 55/1/2 50/5/2
f 15/6/3 57/6/3 14/6/3
f 2/7/4 44/7/4 45/7/4
f 29/7/5 71/7/5 34/7/5
f 59/6/6 15/6/6 16/6/6
f 46/7/7 2/7/7 4/7/7
f 73/7/8 29/7/8 30/7/8
f 60/7/9 16/7/9 17/7/9
f 48/7/10 24/7/10 3/7/10
f 67/7/11 30/7/11 31/7/11
f 61/6/12 17/6/12 18/6/12
f 44/7/13 1/7/13 5/7/13
f 75/7/14 38/7/14 32/7/14
f 62/8/15 18/8/15 19/8/15
f 49/7/16 4/7/16 6/7/16
f 76/7/17 32/7/17 33/7/17
f 63/6/18 19/6/18 20/6/18
f 50/9/19 6/9/19 7/9/19
f 71/7/20 33/7/20 34/7/20
f 64/6/21 20/6/21 21/6/21
f 51/7/22 7/7/22 8/7/22
f 78/7/23 41/7/23 35/7/23
f 65/9/24 21/9/24 22/9/24
f 52/7/25 8/7/25 9/7/25
f 79/7/26 35/7/26 36/7/26
f 66/8/27 22/8/27 23/8/27
f 53/9/28 9/9/28 10/9/28
f 80/7/29 36/7/29 37/7/29
f 47/7/30 23/7/30 24/7/30
f 54/9/31 10/9/31 11/9/31
f 74/7/32 37/7/32 38/7/32
f 68/7/33 31/7/33 25/7/33
f 55/9/34 11/9/34 12/9/34
f 39/8/35 48/8/35 3/8/35
f 69/9/36 25/9/36 26/9/36
f 13/6/37 55/6/37 12/6/37
f 82/7/38 39/7/38 40/7/38
f 70/9/39 26/9/39 27/9/39
f 57/6/40 13/6/40 14/6/40
f 77/7/41 40/7/41 41/7/41
f 43/7/42 28/7/42 1/7/42
f 42/7/43 27/7/43 28/7/43
f 39/10/1 3/11/1 24/12/1
f 24/12/1 23/13/1 19/14/1
f 23/13/1 22/15/1 19/14/1
f 24/12/1 19/14/1 39/10/1
f 22/15/1 21/16/1 19/14/1
f 21/16/1 20/17/1 19/14/1
f 19/14/1 18/18/1 16/19/1
f 18/18/1 17/20/1 16/19/1
f 39/10/1 19/14/1 36/21/1
f 41/22/1 40/23/1 39/10/1
f 36/21/1 35/24/1 39/10/1
f 35/24/1 41/22/1 39/10/1
f 38/25/1 37/26/1 36/21/1
f 33/27/1 32/28/1 34/29/1
f 32/28/1 38/25/1 34/29/1
f 30/30/1 29/31/1 34/29/1
f 34/29/1 38/25/1 36/21/1
f 30/30/1 34/29/1 13/32/1
f 34/29/1 36/21/1 16/19/1
f 13/32/1 34/29/1 14/33/1
f 36/21/1 19/14/1 16/19/1
f 16/19/1 15/34/1 14/33/1
f 31/35/1 30/30/1 12/1/1
f 14/33/1 34/29/1 16/19/1
f 25/3/1 31/35/1 12/1/1
f 30/30/1 13/32/1 12/1/1
f 27/36/1 26/37/1 28/38/1
f 26/37/1 25/3/1 28/38/1
f 1/39/1 28/38/1 25/3/1
f 2/40/1 5/41/1 4/42/1
f 5/41/1 1/39/1 7/2/1
f 6/43/1 4/42/1 5/41/1
f 9/44/1 8/45/1 10/46/1
f 8/45/1 7/2/1 11/47/1
f 10/46/1 8/45/1 11/47/1
f 7/2/1 6/43/1 5/41/1
f 7/2/1 1/39/1 25/3/1
f 12/1/1 11/47/1 7/2/1
f 47/48/2 48/49/2 81/50/2
f 81/50/2 82/51/2 77/52/2
f 77/52/2 78/53/2 81/50/2
f 78/53/2 79/54/2 81/50/2
f 79/54/2 80/55/2 74/56/2
f 74/56/2 75/57/2 71/58/2
f 75/57/2 76/59/2 71/58/2
f 71/58/2 72/60/2 73/61/2
f 79/54/2 74/56/2 71/58/2
f 79/54/2 71/58/2 59/62/2
f 71/58/2 73/61/2 56/32/2
f 47/48/2 81/50/2 62/14/2
f 81/50/2 79/54/2 62/14/2
f 65/63/2 66/64/2 62/14/2
f 66/64/2 47/48/2 62/14/2
f 63/65/2 64/66/2 62/14/2
f 64/66/2 65/63/2 62/14/2
f 60/67/2 61/68/2 59/62/2
f 61/68/2 62/14/2 59/62/2
f 62/14/2 79/54/2 59/62/2
f 71/58/2 56/32/2 57/33/2
f 57/33/2 58/69/2 59/62/2
f 71/58/2 57/33/2 59/62/2
f 73/61/2 67/70/2 55/1/2
f 56/32/2 73/61/2 55/1/2
f 68/71/2 69/72/2 42/73/2
f 69/72/2 70/36/2 42/73/2
f 67/70/2 68/71/2 55/1/2
f 68/71/2 42/73/2 43/74/2
f 43/74/2 44/75/2 50/5/2
f 44/75/2 45/76/2 46/77/2
f 50/5/2 44/75/2 49/78/2
f 46/77/2 49/78/2 44/75/2
f 50/5/2 51/79/2 54/4/2
f 51/79/2 52/44/2 53/80/2
f 55/1/2 68/71/2 50/5/2
f 68/71/2 43/74/2 50/5/2
f 51/79/2 53/80/2 54/4/2
f 15/7/3 58/7/3 57/7/3
f 2/7/4 5/7/4 44/7/4
f 29/7/5 72/7/5 71/7/5
f 59/6/6 58/6/6 15/6/6
f 46/7/7 45/7/7 2/7/7
f 73/7/8 72/7/8 29/7/8
f 60/7/9 59/7/9 16/7/9
f 48/7/10 47/7/10 24/7/10
f 67/7/11 73/7/11 30/7/11
f 61/6/12 60/6/12 17/6/12
f 44/7/13 43/7/13 1/7/13
f 75/7/14 74/7/14 38/7/14
f 62/9/15 61/9/15 18/9/15
f 49/7/16 46/7/16 4/7/16
f 76/7/17 75/7/17 32/7/17
f 63/7/18 62/7/18 19/7/18
f 50/9/19 49/9/19 6/9/19
f 71/7/20 76/7/20 33/7/20
f 64/7/21 63/7/21 20/7/21
f 51/7/22 50/7/22 7/7/22
f 78/7/23 77/7/23 41/7/23
f 65/7/24 64/7/24 21/7/24
f 52/7/25 51/7/25 8/7/25
f 79/6/26 78/6/26 35/6/26
f 66/9/27 65/9/27 22/9/27
f 53/9/28 52/9/28 9/9/28
f 80/7/29 79/7/29 36/7/29
f 47/7/30 66/7/30 23/7/30
f 54/9/31 53/9/31 10/9/31
f 74/7/32 80/7/32 37/7/32
f 68/7/33 67/7/33 31/7/33
f 55/9/34 54/9/34 11/9/34
f 39/7/35 81/7/35 48/7/35
f 69/8/36 68/8/36 25/8/36
f 13/7/37 56/7/37 55/7/37
f 82/7/38 81/7/38 39/7/38
f 70/9/39 69/9/39 26/9/39
f 57/6/40 56/6/40 13/6/40
f 77/7/41 82/7/41 40/7/41
f 43/7/42 42/7/42 28/7/42
f 42/7/43 70/7/43 27/7/43
>>>>>>> main
